<svg xmlns="http://www.w3.org/2000/svg" shape-rendering="geometricPrecision" text-rendering="geometricPrecision" image-rendering="optimizeQuality" fill-rule="evenodd" clip-rule="evenodd" viewBox="0 0 512 338.475"><path fill-rule="nonzero" d="M239.209 44.184h-23.21V0H512v44.184h-23.434v249.883H512v44.408H215.999v-44.408h23.21V44.184zm173.828 0h-23.434v249.883h51.121V44.184h-27.687zM287.051 294.067h54.711V44.184h-54.711v249.883zm-178.604 3.283c.447-6.865 1.122-14.927 2.092-24.181.895-9.256 2.313-18.809 4.253-28.736L160.47 0h52.243l-78.664 338.475H78.072L0 0h53.74l46.201 244.88c.519 4.105 1.194 8.51 1.864 13.362.596 4.776 1.27 9.628 1.941 14.404.672 4.853 1.195 9.405 1.718 13.658.523 4.329.97 7.987 1.194 11.046h1.789z"/></svg>